<svg xmlns="http://www.w3.org/2000/svg" version="1.1" xmlns:xlink="http://www.w3.org/1999/xlink" width="512" height="512" x="0" y="0" viewBox="0 0 64 64" style="enable-background:new 0 0 512 512" xml:space="preserve" class=""><g><g data-name="Layer 2"><path d="M8.43 62h47.14a1 1 0 0 0 1-1V5.276a1 1 0 0 0-1-1H41.023V3a1 1 0 0 0-1-1H23.968a1 1 0 0 0-1 1v1.276H8.43a1 1 0 0 0-1 1V61a1 1 0 0 0 1 1Zm16.538-51.712c0-.012.007-.022.007-.034s-.006-.022-.007-.034V4h14.055v7.349H24.968Zm-1 3.061h16.055a1 1 0 0 0 1-1v-1.1h8.759v44.143H14.2V11.254h8.764v1.1a1 1 0 0 0 1.004.995ZM9.43 6.276h13.538v2.978H13.2a1 1 0 0 0-1 1v46.138a1 1 0 0 0 1 1h37.582a1 1 0 0 0 1-1V10.254a1 1 0 0 0-1-1h-9.759V6.276H54.57V60H9.43Z" fill="#ff4b16" opacity="1" data-original="#000000" class=""></path><path d="M20.626 19.745a1 1 0 1 0-1.465 1.361l2.213 2.383a1 1 0 0 0 .732.32h.026a1 1 0 0 0 .742-.358l3.915-4.681a1 1 0 0 0-1.535-1.283L22.067 21.3ZM29.3 22.532h14.806a1 1 0 0 0 0-2H29.3a1 1 0 0 0 0 2ZM25.254 26.422l-3.187 3.811-1.441-1.552a1 1 0 1 0-1.465 1.361l2.213 2.383a1 1 0 0 0 .732.32h.026a1 1 0 0 0 .742-.358l3.915-4.68a1 1 0 0 0-1.535-1.284ZM29.3 31.468h14.806a1 1 0 0 0 0-2H29.3a1 1 0 0 0 0 2ZM25.254 35.358l-3.187 3.811-1.441-1.552a1 1 0 1 0-1.465 1.362l2.213 2.382a1 1 0 0 0 .732.32h.026a1 1 0 0 0 .742-.358l3.915-4.68a1 1 0 0 0-1.535-1.284ZM29.3 40.4h14.806a1 1 0 0 0 0-2H29.3a1 1 0 1 0 0 2ZM25.254 44.294l-3.187 3.811-1.441-1.551a1 1 0 1 0-1.465 1.361l2.213 2.385a1 1 0 0 0 .732.32h.026a1.006 1.006 0 0 0 .742-.358l3.915-4.681a1 1 0 0 0-1.535-1.284ZM29.3 49.34h14.806a1 1 0 0 0 0-2H29.3a1 1 0 0 0 0 2Z" fill="#ff4b16" opacity="1" data-original="#000000" class=""></path></g></g></svg>