<svg xmlns="http://www.w3.org/2000/svg" version="1.1" xmlns:xlink="http://www.w3.org/1999/xlink" width="512" height="512" x="0" y="0" viewBox="0 0 512 512" style="enable-background:new 0 0 512 512" xml:space="preserve" class=""><g><path d="M365.088 56.89C336.16 33.855 297.419 21.169 256 21.169S175.839 33.855 146.911 56.89c-33.207 26.442-50.76 64.057-50.76 108.777 0 55.51 22.976 87.562 43.246 115.842 16.328 22.778 30.429 42.45 30.429 71.485v6.146c0 14.447 11.753 26.2 26.2 26.2h119.947c14.447 0 26.2-11.753 26.2-26.2v-6.146c0-29.034 14.101-48.706 30.428-71.484 20.271-28.28 43.246-60.333 43.246-115.843 0-44.72-17.553-82.334-50.76-108.777zM256 227.619c-11.284 0-20.464-9.18-20.464-20.464s9.18-20.464 20.464-20.464 20.464 9.18 20.464 20.464-9.18 20.464-20.464 20.464zm96.283 39.326c-17.261 24.081-35.109 48.981-35.109 86.05v6.146c0 .64-.561 1.2-1.2 1.2H268.5V250.857c19.007-5.445 32.964-22.969 32.964-43.702 0-25.069-20.396-45.464-45.464-45.464s-45.464 20.395-45.464 45.464c0 20.733 13.956 38.257 32.964 43.702v109.484h-47.474c-.64 0-1.2-.561-1.2-1.2v-6.146c0-37.069-17.849-61.97-35.109-86.05-18.96-26.451-38.565-53.802-38.565-101.277 0-82.104 69.901-119.499 134.849-119.499s134.848 37.395 134.848 119.499c0 47.476-19.605 74.827-38.564 101.277zM325.96 417.026c0 6.903-5.597 12.5-12.5 12.5H198.54c-6.903 0-12.5-5.597-12.5-12.5s5.597-12.5 12.5-12.5h114.92c6.903 0 12.5 5.597 12.5 12.5zm-27.062 44.185c0 6.903-5.597 12.5-12.5 12.5H268.5v4.621c0 6.903-5.597 12.5-12.5 12.5s-12.5-5.597-12.5-12.5v-4.621h-17.898c-6.903 0-12.5-5.597-12.5-12.5s5.597-12.5 12.5-12.5h60.797c6.903 0 12.5 5.597 12.5 12.5zM423.3 88.215c-3.452-5.979-1.403-13.624 4.575-17.075l23.522-13.581c5.977-3.452 13.623-1.403 17.075 4.575s1.403 13.624-4.575 17.075L440.375 92.79a12.496 12.496 0 0 1-17.075-4.575zM53.161 186.691H26c-6.903 0-12.5-5.597-12.5-12.5s5.597-12.5 12.5-12.5h27.161c6.903 0 12.5 5.597 12.5 12.5s-5.597 12.5-12.5 12.5zm35.537 73.478c3.452 5.979 1.403 13.623-4.575 17.075l-23.522 13.581a12.494 12.494 0 0 1-17.075-4.575c-3.452-5.979-1.403-13.623 4.575-17.075l23.522-13.581c5.977-3.454 13.623-1.404 17.075 4.575zm379.775 26.081a12.494 12.494 0 0 1-17.075 4.575l-23.522-13.58c-5.979-3.451-8.027-11.097-4.575-17.075 3.45-5.979 11.096-8.028 17.075-4.575l23.522 13.58c5.979 3.451 8.027 11.097 4.575 17.075zM88.699 88.214a12.495 12.495 0 0 1-17.075 4.575L48.102 79.208c-5.979-3.452-8.027-11.097-4.575-17.075 3.451-5.979 11.096-8.028 17.075-4.575l23.522 13.581c5.979 3.452 8.027 11.097 4.575 17.075zM498.5 174.192c0 6.903-5.597 12.5-12.5 12.5h-27.162c-6.903 0-12.5-5.597-12.5-12.5s5.597-12.5 12.5-12.5H486c6.903 0 12.5 5.597 12.5 12.5z" fill="#ff4b16" opacity="1" data-original="#000000" class=""></path></g></svg>