<svg xmlns="http://www.w3.org/2000/svg" version="1.1" xmlns:xlink="http://www.w3.org/1999/xlink" width="512" height="512" x="0" y="0" viewBox="0 0 32 32" style="enable-background:new 0 0 512 512" xml:space="preserve" class=""><g><path d="M29 13.7C28.3 9.3 24.5 6 20.1 6H12c-4.5 0-8.3 3.3-9 7.7-.7 4.7-1 6.8-1 7.6 0 4.9 6.7 6.5 8.9 2.1l1.7-3.4h6.8l1.7 3.4c2.2 4.4 8.9 2.8 8.9-2.1 0-.7 0 .2-1-7.6zm-1 7.6c0 2.8-3.9 3.8-5.1 1.2l-2-4c-.2-.3-.5-.5-.9-.5h-8c-.4 0-.7.2-.9.6l-2 4C7.9 25.1 4 24.1 4 21.3L5 14c.5-3.4 3.5-6 6.9-6H20c3.5 0 6.4 2.6 6.9 6 .1.1 1.2 7.8 1.1 7.3z" fill="#ff4b16" opacity="1" data-original="#000000" class=""></path><path d="M14 13c0 .6-.4 1-1 1h-1v1c0 .6-.4 1-1 1s-1-.4-1-1v-1H9c-.6 0-1-.4-1-1s.4-1 1-1h1v-1c0-.6.4-1 1-1s1 .4 1 1v1h1c.6 0 1 .4 1 1zM20 13c0 .6-.4 1-1 1s-1-.4-1-1 .4-1 1-1 1 .4 1 1zM22 15c0 .6-.4 1-1 1s-1-.4-1-1 .4-1 1-1 1 .4 1 1zM24 13c0 .6-.4 1-1 1s-1-.4-1-1 .4-1 1-1 1 .4 1 1zM20 11c0-.6.4-1 1-1s1 .4 1 1-.4 1-1 1-1-.4-1-1z" fill="#ff4b16" opacity="1" data-original="#000000" class=""></path></g></svg>